<svg width="104" height="20" viewBox="0 0 104 20" fill="none" xmlns="http://www.w3.org/2000/svg">
<path d="M62.8986 13.9274C62.5022 15.3795 60.0576 19.868 53.9131 19.868C48.165 19.868 43.9365 15.7756 43.9365 10.033C43.9365 4.29043 48.0989 0 53.847 0C59.2647 0 63.4271 4.29043 63.4271 9.63696C63.4271 10.165 63.3611 10.6271 63.295 10.9571L63.2289 11.4851H48.6936C49.09 14.1254 51.1381 15.8416 53.847 15.8416C56.0934 15.8416 57.613 14.6535 58.0094 13.8614H62.8986V13.9274ZM58.9344 8.38284C58.538 6.0066 56.6219 4.09241 53.847 4.09241C50.9399 4.09241 49.2221 5.94059 48.6936 8.38284H58.9344Z" fill="#000DFF"/>
<path d="M78.0286 17.6237C77.6982 18.0198 77.0375 18.5478 76.509 18.8779C75.65 19.4719 74.3286 19.868 72.4787 19.868C68.1841 19.868 65.6074 17.2277 65.6074 14.1254C65.6074 10.429 68.1841 7.85476 73.4037 7.85476H77.6982V7.45872C77.6982 5.41252 76.4429 3.96037 74.3947 3.96037C72.3465 3.96037 71.2234 5.28051 71.0252 6.33661H66.4003C66.7967 3.2343 69.3073 0.197998 74.3947 0.197998C79.2178 0.197998 82.3892 3.36631 82.3892 7.45872V19.4719H78.0946V17.6237H78.0286ZM77.6321 11.3531H73.734C71.2894 11.3531 70.2323 12.2772 70.2323 13.7954C70.2323 15.2475 71.2894 16.1716 73.2055 16.1716C76.0465 16.1716 77.6321 14.5214 77.6321 11.8812V11.3531Z" fill="#000DFF"/>
<path d="M85.8903 0.593949H90.5152V2.44213C90.8455 2.04609 91.3741 1.58405 91.9687 1.18801C92.8276 0.659956 94.083 0.263916 95.8669 0.263916C100.161 0.263916 103.267 3.43223 103.267 8.25072V19.5378H98.6418V8.51474C98.6418 6.0725 96.99 4.42233 94.5455 4.42233C92.1009 4.42233 90.4491 6.0725 90.4491 8.51474V19.4718H85.8242V0.593949H85.8903Z" fill="#000DFF"/>
<path d="M37.0646 12.4752C36.1396 14.3234 34.2236 15.6436 32.0433 15.6436C28.938 15.6436 26.4274 13.1353 26.4274 10.033C26.4274 6.93069 28.938 4.42244 32.0433 4.42244C34.2236 4.42244 36.0736 5.67657 36.9985 7.39274H41.7556C40.5663 3.10231 36.7343 0 32.1094 0C26.5595 0 22.1328 4.48845 22.1328 9.967C22.1328 15.4455 26.6256 19.934 32.1094 19.934C36.8003 19.934 40.6985 16.6997 41.7556 12.4092H37.0646V12.4752Z" fill="#000DFF"/>
<path d="M9.97656 0C4.55882 0 0.0660699 4.42244 0 9.83498H4.29454C4.36061 6.79868 6.87127 4.35644 9.91049 4.35644C13.0158 4.35644 15.5264 6.86469 15.5264 9.967C15.5264 13.0693 13.0158 15.5776 9.91049 15.5776V19.934H9.97656C15.5264 19.934 19.9531 15.4455 19.9531 9.967C19.9531 4.48845 15.5264 0 9.97656 0Z" fill="#000DFF"/>
</svg>
